<?xml version="1.0" encoding="UTF-8"?>
<svg width="1200" height="1200" viewBox="0 0 1200 1200" xmlns="http://www.w3.org/2000/svg">
<rect width="100%" height="100%" fill="#f5f5f0"/>
<g transform="rotate(90, 600, 600)">
<path d="M 1120 1086 L 1122 1123 L 1120 1128 L 1113 1138 L 1106 1142 L 1094 1146 L 1066 1150 L 1032 1145 L 1016 1146 L 915 1145 L 886 1144 L 865 1144 L 848 1143 L 831 1143 L 806 1139 L 803 1137 L 794 1127 L 790 1125 L 787 1109 L 790 1107 L 792 1102 L 793 1090 L 791 1044 L 793 1010 L 793 972 L 796 909 L 799 889 L 799 864 L 798 830 L 801 751 L 804 651 L 811 579 L 811 550 L 800 532 L 791 525 L 787 524 L 753 527 L 728 523 L 699 523 L 666 521 L 531 520 L 443 516 L 440 513 L 426 493 L 422 480 L 421 472 L 419 431 L 426 372 L 425 330 L 427 309 L 423 297 L 421 294 L 413 290 L 396 289 L 367 290 L 228 284 L 204 280 L 175 280 L 95 275 L 84 270 L 80 262 L 80 254 L 101 208 L 102 196 L 102 187 L 87 166 L 81 151 L 79 143 L 78 105 L 85 85 L 91 75 L 101 65 L 111 58 L 131 53 L 148 53 L 155 50 L 193 54 L 206 52 L 227 54 L 264 52 L 306 55 L 365 53 L 381 55 L 394 53 L 474 52 L 503 50 L 537 54 L 616 51 L 654 52 L 691 55 L 729 53 L 767 56 L 796 55 L 812 60 L 835 70 L 851 90 L 854 97 L 860 148 L 859 160 L 853 180 L 847 191 L 814 229 L 811 237 L 812 241 L 814 244 L 830 252 L 846 258 L 916 252 L 941 252 L 950 252 L 982 260 L 991 260 L 1003 257 L 1016 241 L 1018 233 L 1015 221 L 1008 210 L 998 203 L 986 199 L 984 195 L 980 170 L 977 145 L 978 116 L 984 100 L 998 80 L 1017 63 L 1024 59 L 1032 55 L 1045 57 L 1055 70 L 1060 77 L 1064 89 L 1067 113 L 1065 147 L 1065 168 L 1068 185 L 1074 251 L 1078 268 L 1081 318 L 1082 356 L 1082 440 L 1087 481 L 1086 515 L 1093 620 L 1095 662 L 1094 704 L 1097 746 L 1101 867 L 1118 1038 L 1118 1059 L 1120 1083" stroke="#006400" stroke-width="2" fill="none"/>
<path d="M 1103 1131 L 823 1131 L 802 1121 L 1108 1121 L 1108 1111 L 798 1111 L 802 1101 L 1108 1101 L 1108 1091 L 802 1091 L 802 1081 L 1103 1081 L 1103 1071 L 802 1071 L 802 1060 L 1103 1060 L 1103 1050 L 802 1050 L 802 1040 L 1103 1040 L 1103 1030 L 802 1030 L 802 1020 L 1103 1020 L 1099 1010 L 802 1010 L 802 1000 L 1099 1000 L 1099 990 L 802 990 L 802 980 L 1099 980 L 1099 970 L 802 970 L 806 960 L 1095 960 L 1095 950 L 806 950 L 806 940 L 1095 940 L 1095 930 L 806 930 L 806 919 L 1091 919 L 1091 909 L 806 909 L 806 899 L 1091 899 L 1087 889 L 810 889 L 810 879 L 1087 879 L 1087 869 L 810 869 L 810 859 L 1087 859 L 1087 849 L 810 849 L 810 839 L 1087 839 L 1087 829 L 810 829 L 810 820 L 1087 820 L 1087 809 L 810 809 L 810 799 L 1087 799 L 1082 789 L 810 789 L 810 779 L 1082 779 L 1082 769 L 810 769 L 810 759 L 1082 759 L 1082 749 L 810 749 L 810 739 L 1082 739 L 1082 728 L 814 728 L 814 719 L 1082 719 L 1078 709 L 814 709 L 814 698 L 1078 698 L 1082 689 L 814 689 L 814 678 L 1082 678 L 1082 668 L 814 668 L 814 657 L 1082 657 L 1082 647 L 814 647 L 814 638 L 1078 638 L 1078 627 L 819 627 L 819 617 L 1078 617 L 1078 608 L 819 608 L 819 598 L 1078 598 L 1078 587 L 823 587 L 823 577 L 1075 577 L 1075 568 L 823 568 L 823 558 L 1075 557 L 1075 547 L 823 547 L 814 537 L 1075 537 L 1075 527 L 810 527 L 802 517 L 1050 516 M 1071 512 L 676 512 L 445 502 L 1071 502 L 1075 493 L 437 493 L 432 483 L 1075 482 L 1071 472 L 432 472 L 449 464 M 532 462 L 1071 462 L 1071 452 L 542 453 M 542 450 M 542 442 L 1071 442 L 1071 432 L 547 432 M 547 431 L 548 422 L 1071 422 L 1071 411 L 548 412 M 548 411 L 547 401 L 1071 401 L 1071 391 L 432 391 L 437 381 L 1071 381 L 1071 371 L 437 371 L 437 361 L 1071 361 L 1071 351 L 437 351 L 437 342 L 1071 341 L 1066 331 L 437 331 L 453 331 M 437 321 L 1066 321 L 1066 311 L 460 311 M 462 311 M 462 301 L 1066 301 L 1066 290 L 432 290 L 434 284 M 462 280 L 1066 280 L 1061 273 L 311 270 M 214 270 L 1041 267 M 1003 269 L 1061 269 L 1061 259 L 1012 259 L 1020 249 L 1058 249 L 1058 219 L 1020 208 L 1058 208 L 1054 198 L 1012 198 L 995 188 L 1054 188 L 1054 178 L 991 178 L 991 169 L 1050 169 L 1050 158 L 991 158 L 987 148 L 1050 148 L 1050 138 L 987 138 L 987 128 L 1054 128 L 1054 118 L 991 118 L 991 107 L 1050 107 L 1050 97 L 995 97 L 1003 87 L 1030 90 M 806 71 L 105 72 L 101 78 L 822 77 L 835 87 L 96 88 L 88 98 L 840 97 L 840 107 L 88 107 L 88 118 L 840 118 L 844 128 L 88 128 L 88 139 L 844 138 L 844 148 L 92 149 L 97 159 L 844 158 L 840 169 L 101 169 L 118 169 M 109 179 L 192 179 M 176 177 L 176 189 L 133 189 M 133 187 M 133 199 L 187 199 M 187 196 L 184 208 L 137 209 M 138 207 M 138 219 L 186 219 M 187 229 L 101 229 L 97 239 L 349 239 M 350 236 L 348 249 L 92 249 L 92 259 L 814 259 L 848 270 L 234 268 M 726 67 L 787 68 M 671 67 L 128 68 M 306 181 L 790 182 M 806 176 L 230 177 M 470 186 L 819 185 L 826 195 L 460 195 M 462 195 M 478 206 L 819 205 L 810 215 L 464 216 M 463 215 L 463 222 L 787 221 M 798 227 L 465 228 M 463 226 L 464 238 L 798 237 L 802 248 L 430 248 M 429 298 L 429 311 L 429 323 L 429 336 L 429 348 L 429 365 L 429 378 L 429 390 L 425 399 L 425 411 L 423 426 L 421 437 L 425 445 L 425 457 L 425 468 L 425 479 L 429 487 L 435 497 L 440 505 L 448 510 L 461 510 L 469 514 L 482 514 L 499 514 L 511 514 L 524 514 L 537 514 L 549 514 L 562 514 L 574 514 L 587 514 L 604 514 L 616 514 L 629 514 L 641 514 L 654 514 L 667 514 L 675 518 L 688 518 L 704 518 L 717 518 L 730 518 L 741 518 L 751 522 L 767 522 L 776 518 L 788 518 L 798 523 L 804 531 L 809 538 L 815 546 L 815 558 L 815 575 L 815 588 L 811 596 L 811 609 L 811 621 L 809 631 L 807 642 L 807 655 L 807 672 L 807 684 L 807 697 L 807 710 L 807 722 L 805 736 L 803 747 L 803 760 L 803 772 L 803 781 L 803 793 L 803 806 L 803 819 L 803 831 L 803 843 L 803 851 L 803 864 L 803 877 L 803 885 L 803 898 L 799 906 L 799 918 L 799 930 L 799 941 L 799 953 L 794 966 L 794 977 L 794 990 L 794 1002 L 794 1014 L 794 1030 L 794 1043 L 794 1055 L 794 1067 L 794 1079 L 794 1092 L 794 1104 L 790 1113 L 796 1123 L 801 1132 L 809 1136 L 821 1136 L 830 1140 L 843 1140 L 856 1140 L 868 1140 L 885 1140 L 898 1140 L 910 1140 L 923 1140 L 935 1140 L 952 1140 L 964 1140 L 972 1144 L 982 1140 L 994 1140 L 1006 1140 L 1015 1144 L 1024 1140 L 1038 1142 L 1049 1144 L 1061 1144 L 1074 1144 L 1086 1144 L 1096 1140 L 1106 1140 L 1113 1135 L 1118 1125 L 1118 1113 L 1118 1102 L 1118 1091 L 1114 1083 L 1114 1067 L 1114 1055 L 1114 1044 L 1114 1032 L 1112 1022 L 1110 1012 L 1110 1001 L 1110 989 L 1110 974 L 1106 966 L 1106 954 L 1106 942 L 1106 931 L 1102 920 L 1102 909 L 1102 898 L 1097 890 L 1097 877 L 1097 866 L 1097 854 L 1097 841 L 1097 825 L 1097 814 L 1097 802 L 1093 793 L 1093 781 L 1093 768 L 1093 756 L 1093 743 L 1093 726 L 1091 715 L 1089 705 L 1089 693 L 1093 684 L 1093 668 L 1093 656 L 1089 646 L 1089 634 L 1089 621 L 1089 609 L 1089 596 L 1089 584 L 1085 571 L 1085 558 L 1085 546 L 1085 533 L 1085 521 L 1081 512 L 1081 500 L 1085 491 L 1085 483 L 1081 474 L 1081 462 L 1081 445 L 1081 432 L 1081 420 L 1081 407 L 1081 395 L 1081 382 L 1081 369 L 1081 357 L 1078 342 L 1076 332 L 1076 319 L 1076 306 L 1076 294 L 1076 277 L 1071 269 L 1071 256 L 1067 248 L 1067 235 L 1067 222 L 1067 210 L 1063 201 L 1063 185 L 1061 174 L 1059 164 L 1059 151 L 1059 139 L 1063 126 L 1063 114 L 1059 105 L 1059 95 L 1057 86 L 1055 76 L 1047 68 L 1041 63 L 1032 60 L 1023 65 L 1013 72 L 1004 81 L 995 89 L 992 96 L 987 105 L 983 112 L 983 126 L 979 134 L 979 147 L 983 155 L 983 166 L 986 179 L 987 189 L 992 195 L 1002 199 L 1010 207 L 1017 217 L 1021 227 L 1021 239 L 1016 249 L 1008 257 L 994 262 L 982 262 L 969 262 L 960 258 L 950 256 L 940 254 L 927 254 L 916 256 L 902 258 L 889 258 L 877 258 L 864 258 L 856 262 L 843 262 L 834 258 L 825 254 L 812 249 L 807 239 L 807 227 L 815 218 L 824 210 L 835 198 L 840 189 L 845 180 L 849 172 L 853 164 L 856 153 L 853 143 L 853 130 L 849 117 L 849 105 L 847 94 L 841 86 L 835 79 L 826 73 L 818 69 L 809 65 L 803 60 L 793 57 L 784 60 L 772 60 L 759 60 L 746 60 L 738 56 L 721 56 L 709 56 L 699 60 L 689 60 L 678 59 L 668 56 L 655 56 L 642 56 L 626 56 L 614 56 L 602 56 L 589 56 L 577 56 L 565 56 L 552 56 L 541 56 L 524 56 L 511 56 L 503 52 L 488 55 L 478 56 L 465 56 L 453 56 L 440 56 L 427 56 L 415 56 L 402 56 L 385 56 L 373 56 L 360 56 L 348 56 L 335 56 L 318 56 L 306 56 L 293 56 L 280 56 L 268 56 L 255 56 L 243 56 L 230 56 L 213 56 L 201 56 L 188 56 L 175 56 L 163 56 L 154 56 L 142 56 L 129 56 L 117 60 L 109 65 L 102 70 L 93 76 L 89 84 L 85 96 L 81 105 L 81 117 L 81 128 L 81 139 L 85 147 L 89 155 L 91 165 L 102 176 L 106 185 L 106 197 L 106 209 L 102 217 L 96 228 L 91 237 L 87 245 L 85 256 L 87 266 L 96 270 L 108 270 L 121 270 L 135 273 L 146 275 L 159 275 L 171 275 L 184 275 L 196 275 L 209 275 L 217 279 L 234 279 L 247 279 L 259 279 L 272 279 L 285 279 L 297 283 L 310 283 L 322 283 L 335 283 L 348 283 L 360 283 L 373 283 L 385 283 L 402 283 L 412 285 L 421 290 L 429 298 L 413 285 M 421 290 L 429 298 L 429 311 L 429 323 L 429 336 L 429 348 L 429 365 L 429 378 L 429 390 L 425 399 L 425 411 L 423 426 L 421 437 L 425 445 L 425 457 L 425 468 L 425 479 L 429 487 L 435 497 L 440 505 L 448 510 L 461 510 L 469 514 L 482 514 L 499 514 L 511 514 L 524 514 L 537 514 L 549 514 L 562 514 L 574 514 L 587 514 L 604 514 L 616 514 L 629 514 L 641 514 L 654 514 L 667 514 L 675 518 L 688 518 L 704 518 L 717 518 L 730 518 L 741 518 L 751 522 L 767 522 L 776 518 L 788 518 L 798 523 L 804 531 L 809 538 L 815 546 L 815 558 L 815 575 L 815 588 L 811 596 L 811 609 L 811 621 L 809 631 L 807 642 L 807 655 L 807 672 L 807 684 L 807 697 L 807 710 L 807 722 L 805 736 L 803 747 L 803 760 L 803 772 L 803 781 L 803 793 L 803 806 L 803 819 L 803 831 L 803 843 L 803 851 L 803 864 L 803 877 L 803 885 L 803 898 L 799 906 L 799 918 L 799 930 L 799 941 L 799 953 L 794 966 L 794 977 L 794 990 L 794 1002 L 794 1014 L 794 1030 L 794 1043 L 794 1055 L 794 1067 L 794 1079 L 794 1092 L 794 1104 L 790 1113 L 796 1123 L 801 1132 L 809 1136 L 821 1136 L 830 1140 L 843 1140 L 856 1140 L 868 1140 L 885 1140 L 898 1140 L 910 1140 L 923 1140 L 935 1140 L 952 1140 L 964 1140 L 972 1144 L 982 1140 L 994 1140 L 1006 1140 L 1015 1144 L 1024 1140 L 1038 1142 L 1049 1144 L 1061 1144 L 1074 1144 L 1086 1144 L 1096 1140 L 1106 1140 L 1113 1135 L 1118 1125 L 1118 1113 L 1118 1102 L 1118 1091 L 1114 1083 L 1114 1067 L 1114 1055 L 1114 1044 L 1114 1032 L 1112 1022 L 1110 1012 L 1110 1001 L 1110 989 L 1110 974 L 1106 966 L 1106 954 L 1106 942 L 1106 931 L 1102 920 L 1102 909 L 1102 898 L 1097 890 L 1097 877 L 1097 866 L 1097 854 L 1097 841 L 1097 825 L 1097 814 L 1097 802 L 1093 793 L 1093 781 L 1093 768 L 1093 756 L 1093 743 L 1093 726 L 1091 715 L 1089 705 L 1089 693 L 1093 684 L 1093 668 L 1093 656 L 1089 646 L 1089 634 L 1089 621 L 1089 609 L 1089 596 L 1089 584 L 1085 571 L 1085 558 L 1085 546 L 1085 533 L 1085 521 L 1081 512 L 1081 500 L 1085 491 L 1085 483 L 1081 474 L 1081 462 L 1081 445 L 1081 432 L 1081 420 L 1081 407 L 1081 395 L 1081 382 L 1081 369 L 1081 357 L 1078 342 L 1076 332 L 1076 319 L 1076 306 L 1076 294 L 1076 277 L 1071 269 L 1071 256 L 1067 248 L 1067 235 L 1067 222 L 1067 210 L 1063 201 L 1063 185 L 1061 174 L 1059 164 L 1059 151 L 1059 139 L 1063 126 L 1063 114 L 1059 105 L 1059 95 L 1057 86 L 1055 76 L 1047 68 L 1041 63 L 1032 60 L 1023 65 L 1013 72 L 1004 81 L 995 89 L 992 96 L 987 105 L 983 112 L 983 126 L 979 134 L 979 147 L 983 155 L 983 166 L 986 179 L 987 189 L 992 195 L 1002 199 L 1010 207 L 1017 217 L 1021 227 L 1021 239 L 1016 249 L 1008 257 L 994 262 L 982 262 L 969 262 L 960 258 L 950 256 L 940 254 L 927 254 L 916 256 L 902 258 L 889 258 L 877 258 L 864 258 L 856 262 L 843 262 L 834 258 L 825 254 L 812 249 L 807 239 L 807 227 L 815 218 L 824 210 L 835 198 L 840 189 L 845 180 L 849 172 L 853 164 L 856 153 L 853 143 L 853 130 L 849 117 L 849 105 L 847 94 L 841 86 L 835 79 L 826 73 L 818 69 L 809 65 L 803 60 L 793 57 L 784 60 L 772 60 L 759 60 L 746 60 L 738 56 L 721 56 L 709 56 L 699 60 L 689 60 L 678 59 L 668 56 L 655 56 L 642 56 L 626 56 L 614 56 L 602 56 L 589 56 L 577 56 L 565 56 L 552 56 L 541 56 L 524 56 L 511 56 L 503 52 L 488 55 L 478 56 L 465 56 L 453 56 L 440 56 L 427 56 L 415 56 L 402 56 L 385 56 L 373 56 L 360 56 L 348 56 L 335 56 L 318 56 L 306 56 L 293 56 L 280 56 L 268 56 L 255 56 L 243 56 L 230 56 L 213 56 L 201 56 L 188 56 L 175 56 L 163 56 L 154 56 L 142 56 L 129 56 L 117 60 L 109 65 L 102 70 L 93 76 L 89 84 L 85 96 L 81 105 L 81 117 L 81 128 L 81 139 L 85 147 L 89 155 L 91 165 L 102 176 L 106 185 L 106 197 L 106 209 L 102 217 L 96 228 L 91 237 L 87 245 L 85 256 L 87 266 L 96 270 L 108 270 L 121 270 L 135 273 L 146 275 L 159 275 L 171 275 L 184 275 L 196 275 L 209 275 L 217 279 L 234 279 L 247 279 L 259 279 L 272 279 L 285 279 L 297 283 L 310 283 L 322 283 L 335 283 L 348 283 L 360 283 L 373 283 L 385 283 L 402 283 L 412 285 L 421 290 L 429 298 L 412 286" stroke="#ffa500" stroke-width="2" fill="none"/>
<polygon points="484,414 480,427 493,431 501,422" fill="#ff4d0065" stroke="#ff4d00"/>
<polygon points="396,204 392,221 405,225 413,212" fill="#ff4d0065" stroke="#ff4d00"/>
<polygon points="237,196 233,208 241,212" fill="#ff4d0065" stroke="#ff4d00"/>
</g>
<text x="600" y="30" font-family="Arial, sans-serif" font-size="16" font-weight="bold" fill="#000000" text-anchor="middle">Dreame Mower Map (Current)</text>
<rect x="20" y="50" width="15" height="10" fill="#006400"/>
<text x="40" y="58" font-family="Arial, sans-serif" font-size="10" fill="#000000">Map Boundary</text>
<rect x="20" y="70" width="15" height="10" fill="#ffa500"/>
<text x="40" y="78" font-family="Arial, sans-serif" font-size="10" fill="#000000">Mowing Path</text>
<rect x="20" y="90" width="15" height="10" fill="#ff4d00"/>
<text x="40" y="98" font-family="Arial, sans-serif" font-size="10" fill="#000000">Obstacles</text>
<rect x="20" y="110" width="15" height="10" fill="#b4b4b4"/>
<text x="40" y="118" font-family="Arial, sans-serif" font-size="10" fill="#000000">Trajectory</text>
<g><rect x="7" y="1172" width="174.0" height="18" fill="#f5f5f0" stroke="#000000"/><text x="10" y="1185" font-family="Arial, sans-serif" font-size="10" fill="#000000">Started: 2025-10-18 11:16:55</text></g>
</svg>